<svg xmlns="http://www.w3.org/2000/svg" width="62" height="62" viewBox="0 0 62 62" fill="none">
<path d="M58.3699 55.4617V24.0112L58.3688 24.0058C58.3381 23.9142 58.3337 23.5491 58.0436 23.3045L51.7285 17.9754V17.3544C51.7285 17.1742 51.6321 16.8786 51.46 16.7067L43.9329 9.1796C43.7669 9.01358 43.4795 8.91113 43.2852 8.91113H43.2834L40.9917 8.91525L33.5058 2.59815C32.0596 1.37741 29.9592 1.37462 28.513 2.595L20.9761 8.95121L13.1526 8.96526C11.5636 8.96841 10.2713 10.2635 10.2713 11.852V17.979L3.957 23.304C3.73527 23.4908 3.62508 23.8092 3.63004 24.0113V55.4619C3.63004 58.155 5.82644 60.3187 8.48687 60.3187H53.513C56.1502 60.3186 58.3699 58.1755 58.3699 55.4617ZM51.7286 20.3727L56.032 24.004L51.7286 27.6328V20.3727ZM44.2015 12.0392C44.2949 12.1326 48.9099 16.7477 48.6172 16.455L45.2639 16.4806C44.7369 16.5033 44.2014 16.0497 44.2014 15.4266L44.2015 12.0392ZM29.6933 3.99606C30.4561 3.35414 31.5619 3.35462 32.3237 3.99824L38.1567 8.92021L23.824 8.94589L29.6933 3.99606ZM12.1037 11.8519C12.1037 11.2717 12.5761 10.7989 13.1562 10.7975L42.3693 10.7452V15.4266C42.3693 17.0301 43.6692 18.3128 45.2551 18.3128H45.2783L49.8962 18.2775V29.1745L33.3535 43.1276C31.9833 44.2823 29.9962 44.2813 28.6277 43.1268L12.1037 29.1823V11.8519ZM10.2713 20.3759V27.6362L5.96824 24.005L10.2713 20.3759ZM5.46243 55.4617V25.9752C5.67023 26.1505 4.2693 24.9683 22.6885 40.5127L5.83322 56.8823C5.60436 56.4567 5.46243 55.9778 5.46243 55.4617ZM53.513 58.4863H8.48687C8.00383 58.4863 7.55336 58.3619 7.14794 58.1597L24.0956 41.7001L27.4458 44.5269C29.4977 46.2589 32.4792 46.261 34.5344 44.5282L37.9042 41.6867L54.8525 58.1595C54.4469 58.3618 53.9962 58.4863 53.513 58.4863ZM56.5376 55.4617C56.5376 55.9777 56.3957 56.4565 56.1669 56.8819L39.3119 40.4998L56.5376 25.9747V55.4617Z" fill="#262626"/>
<path fill-rule="evenodd" clip-rule="evenodd" d="M34.9921 30.1781L34.2059 28.8332C33.255 29.5218 31.9554 29.881 30.8872 29.881C27.5137 29.881 24.9477 27.434 24.9477 24.1512C24.9477 20.8056 27.7103 18.1071 31.1139 18.1071C34.7502 18.1071 37.0705 20.672 37.0705 24.0815C37.0705 27.4437 34.8521 27.5374 34.8521 26.108V20.1685H32.8085V21.1466C32.5754 20.7287 31.5417 19.9766 30.3107 19.9766C28.0782 19.9766 26.6422 21.8219 26.6422 24.0985C26.6422 26.4789 28.4662 28.1515 30.5196 28.1515C31.6243 28.1515 32.6224 27.6836 33.2797 26.7192C33.2847 26.733 33.2886 26.7613 33.2942 26.801C33.3253 27.0246 33.4068 27.6092 34.014 28.0029C35.6814 29.0897 38.6953 27.9201 38.6953 24.0289C38.6953 19.8534 35.5888 16.5874 31.1139 16.5874C26.8013 16.5874 23.3057 19.8508 23.3057 24.1512C23.3057 28.4074 26.6672 31.4356 30.8871 31.4356C32.1946 31.4356 33.9345 30.9643 34.9921 30.1781ZM28.8777 24.0119C28.8777 25.1785 29.5712 26.2822 30.7471 26.2822C31.9864 26.2822 32.6684 25.227 32.6684 24.029C32.6684 22.8521 31.9377 21.8802 30.7122 21.8802C29.5744 21.8802 28.8777 22.8917 28.8777 24.0119Z" fill="url(#paint0_linear_114_4538)"/>
<defs>
<linearGradient id="paint0_linear_114_4538" x1="34.2914" y1="17.0374" x2="21.7375" y2="25.7762" gradientUnits="userSpaceOnUse">
<stop stop-color="#FEEA95"/>
<stop offset="1" stop-color="#C69753"/>
</linearGradient>
</defs>
</svg>