<svg xmlns="http://www.w3.org/2000/svg" width="64" height="62" viewBox="0 0 64 62" fill="none">
  <g clip-path="url(#clip0_114_4526)">
    <path d="M61.9805 43.1645L46.1142 36.1022C45.4179 35.7923 44.6028 35.9491 44.0705 36.4951C43.0164 37.5771 40.5282 40.1147 39.0054 41.61C35.9764 39.4838 32.7398 36.6885 29.5696 33.4557C29.5611 33.4472 29.5525 33.4386 29.544 33.4301C26.3595 30.3073 23.6661 27.1844 21.5224 24.1298C23.3595 22.2753 26.5946 19.0823 26.6349 19.0425C27.1738 18.5107 27.3273 17.7007 27.0198 17.0083L19.9902 1.17508C19.6281 0.358944 18.7266 -0.0742447 17.8631 0.153724L5.65085 3.37136C1.94458 4.31452 0.135519 8.1952 1.2801 11.91C4.81244 23.3767 9.89695 33.1524 19.8233 43.2143C19.8266 43.2176 19.83 43.2209 19.8333 43.2242L19.8968 43.2877C19.9001 43.2911 19.9034 43.2944 19.9067 43.2977C33.0223 56.2374 44.8544 59.883 51.211 61.8414C54.8889 62.9741 58.7961 61.2106 59.7497 57.473L62.9991 45.2963C63.2294 44.4319 62.7976 43.528 61.9805 43.1645ZM56.2297 56.545C56.2278 56.5526 56.2259 56.5602 56.224 56.5678C55.795 58.2626 53.9741 58.884 52.2826 58.3626C45.799 56.3649 34.948 53.0222 22.468 40.7118L22.4097 40.6531C10.0984 28.1721 6.49211 16.4651 4.75841 10.8384C4.23707 9.14499 4.85983 7.32551 6.55325 6.89753C6.55894 6.89611 6.56463 6.89469 6.57031 6.89279L17.2924 4.06854L23.1831 17.3362C21.6765 18.8273 18.7271 21.7534 17.8583 22.6719C17.2782 23.2852 17.1962 24.2175 17.6607 24.9232C20.0617 28.5717 23.1983 32.304 26.9828 36.0164C30.7488 39.8554 34.628 43.1219 38.2011 45.4627C38.8907 45.9144 39.7979 45.8461 40.4121 45.2968C41.3718 44.438 44.2994 41.4649 45.7909 39.9421L59.0814 45.8584L56.2297 56.545Z" fill="#262626"/>
    <path d="M32.0005 3.70047C47.1199 3.70047 59.4208 15.9468 59.4208 30.9994C59.4208 32.0042 60.2355 32.8194 61.2403 32.8194C62.2455 32.8194 63.0602 32.0042 63.0602 30.9994C63.0602 13.9396 49.1271 0.0605469 32.0005 0.0605469C30.9953 0.0605469 30.1805 0.875264 30.1805 1.88051C30.1805 2.88575 30.9953 3.70047 32.0005 3.70047Z" fill="url(#paint0_linear_114_4526)"/>
    <path d="M32.0005 10.9803C43.0388 10.9803 52.0196 19.9606 52.0196 30.9993C52.0196 32.0041 52.8343 32.8193 53.8396 32.8193C54.8443 32.8193 55.6595 32.0041 55.6595 30.9993C55.6595 17.9535 45.0459 7.34033 32.0005 7.34033C30.9953 7.34033 30.1805 8.15505 30.1805 9.16029C30.1805 10.1651 30.9953 10.9803 32.0005 10.9803Z" fill="url(#paint1_linear_114_4526)"/>
    <path d="M32.0005 18.26C39.0249 18.26 44.7398 23.9749 44.7398 30.9998C44.7398 32.0045 45.5545 32.8197 46.5597 32.8197C47.565 32.8197 48.3797 32.0045 48.3797 30.9998C48.3797 21.9682 41.0321 14.6201 32.0005 14.6201C30.9953 14.6201 30.1805 15.4353 30.1805 16.4401C30.1805 17.4453 30.9953 18.26 32.0005 18.26Z" fill="url(#paint2_linear_114_4526)"/>
  </g>
  <defs>
    <linearGradient id="paint0_linear_114_4526" x1="53.6512" y1="1.05328" x2="26.2739" y2="19.5081" gradientUnits="userSpaceOnUse">
      <stop stop-color="#FEEA95"/>
      <stop offset="1" stop-color="#C69753"/>
    </linearGradient>
    <linearGradient id="paint1_linear_114_4526" x1="48.3684" y1="8.11245" x2="27.1045" y2="22.3936" gradientUnits="userSpaceOnUse">
      <stop stop-color="#FEEA95"/>
      <stop offset="1" stop-color="#C69753"/>
    </linearGradient>
    <linearGradient id="paint2_linear_114_4526" x1="43.1717" y1="15.1716" x2="27.9831" y2="25.3723" gradientUnits="userSpaceOnUse">
      <stop stop-color="#FEEA95"/>
      <stop offset="1" stop-color="#C69753"/>
    </linearGradient>
    <clipPath id="clip0_114_4526">
      <rect width="62.1213" height="62" fill="white" transform="translate(0.939331)"/>
    </clipPath>
  </defs>
</svg>