<svg xmlns="http://www.w3.org/2000/svg" width="23" height="44" viewBox="0 0 23 44" fill="none">
    <path d="M2.73322 21.8153L2.35208 14.2915C2.34673 14.186 2.22156 14.1335 2.14259 14.2038L0.538989 15.6307C0.333677 15.8134 0.00925074 15.6637 0.0149428 15.389L0.0936894 11.5877C0.0953398 11.5081 0.12714 11.432 0.182676 11.3748L11.017 0.226458C11.1385 0.101499 11.3383 0.0989449 11.4629 0.22076L22.0772 10.5984C22.3498 10.865 22.5035 11.2302 22.5035 11.6115V13.9126C22.5035 14.3045 22.0536 14.5259 21.7431 14.2867L20.773 13.5395C20.6902 13.4758 20.5702 13.5348 20.5702 13.6393V21.115C20.5702 21.6233 20.168 22.0404 19.66 22.0589L17.1988 22.1484C16.7865 22.1634 16.419 21.8905 16.3142 21.4915L15.7541 19.3608C15.7298 19.2685 15.5994 19.2664 15.5722 19.358L14.8023 21.9489C14.7626 22.0824 14.6399 22.174 14.5005 22.174H9.46778C9.26392 22.174 9.08666 22.0342 9.03915 21.836L7.78237 16.5917C7.75195 16.4647 7.57224 16.4622 7.53831 16.5883L6.10973 21.8945C6.06532 22.0594 5.91575 22.174 5.74492 22.174H3.11054C2.90931 22.174 2.7434 22.0163 2.73322 21.8153Z" fill="url(#paint0_linear_114_46)"/>
    <path fillRule="evenodd" clip-rule="evenodd" d="M1.98047 29.5567V24.1006C1.98047 23.9281 2.11933 23.7877 2.29185 23.7858L21.1433 23.5791C21.3186 23.5772 21.4616 23.7187 21.4616 23.8939V29.0402C21.4616 29.1984 21.3442 29.3321 21.1872 29.3524L16.1338 30.007C15.0487 30.1476 14.3096 31.1778 14.5242 32.2508L15.3493 36.3763C16.0134 38.3508 16.5552 42.5814 13.4102 43.7076C10.2652 44.8339 8.85912 42.4415 8.54922 41.1045C8.38984 40.4139 8.16672 38.4376 8.54922 36.0576C8.77181 34.6726 8.93623 33.3637 8.96501 32.2639C8.99654 31.0593 7.98252 30.2179 6.77969 30.1448L2.27619 29.8709C2.11004 29.8608 1.98047 29.7231 1.98047 29.5567ZM12.0961 41.1311C12.6682 41.1311 13.132 40.6673 13.132 40.0951C13.132 39.523 12.6682 39.0592 12.0961 39.0592C11.5239 39.0592 11.0601 39.523 11.0601 40.0951C11.0601 40.6673 11.5239 41.1311 12.0961 41.1311Z" fill="url(#paint1_linear_114_46)"/>
    <defs>
    <linearGradient id="paint0_linear_114_46" x1="16.0638" y1="0.671966" x2="-2.54366" y2="13.3547" gradientUnits="userSpaceOnUse">
    <stop stop-color="#FEEA95"/>
    <stop offset="1" stop-color="#C69753"/>
    </linearGradient>
    <linearGradient id="paint1_linear_114_46" x1="15.8868" y1="24.198" x2="-0.839225" y2="34.9142" gradientUnits="userSpaceOnUse">
    <stop stop-color="#FEEA95"/>
    <stop offset="1" stop-color="#C69753"/>
    </linearGradient>
    </defs>
</svg>