<?xml version="1.0" encoding="UTF-8" standalone="no"?>
<svg
   width="16"
   height="16"
   viewBox="0 0 16 16"
   fill="none"
   version="1.1"
   id="svg18"
   sodipodi:docname="logo.svg"
   inkscape:version="1.2.2 (732a01da63, 2022-12-09)"
   xmlns:inkscape="http://www.inkscape.org/namespaces/inkscape"
   xmlns:sodipodi="http://sodipodi.sourceforge.net/DTD/sodipodi-0.dtd"
   xmlns="http://www.w3.org/2000/svg"
   xmlns:svg="http://www.w3.org/2000/svg">
  <sodipodi:namedview
     id="namedview20"
     pagecolor="#ffffff"
     bordercolor="#000000"
     borderopacity="0.25"
     inkscape:showpageshadow="2"
     inkscape:pageopacity="0.0"
     inkscape:pagecheckerboard="0"
     inkscape:deskcolor="#d1d1d1"
     showgrid="false"
     inkscape:zoom="18.840909"
     inkscape:cx="9.7925211"
     inkscape:cy="9.2882992"
     inkscape:window-width="1920"
     inkscape:window-height="1009"
     inkscape:window-x="-8"
     inkscape:window-y="-8"
     inkscape:window-maximized="1"
     inkscape:current-layer="svg18" />
  <g
     id="g328"
     transform="matrix(0.36471863,0,0,0.36471863,3.8935657,-0.04779379)">
    <path
       d="M 2.73322,21.8153 2.35208,14.2915 C 2.34673,14.186 2.22156,14.1335 2.14259,14.2038 L 0.538989,15.6307 C 0.333677,15.8134 0.00925074,15.6637 0.0149428,15.389 L 0.0936894,11.5877 C 0.0953398,11.5081 0.12714,11.432 0.182676,11.3748 L 11.017,0.226458 C 11.1385,0.101499 11.3383,0.0989449 11.4629,0.22076 L 22.0772,10.5984 c 0.2726,0.2666 0.4263,0.6318 0.4263,1.0131 v 2.3011 c 0,0.3919 -0.4499,0.6133 -0.7604,0.3741 L 20.773,13.5395 c -0.0828,-0.0637 -0.2028,-0.0047 -0.2028,0.0998 v 7.4757 c 0,0.5083 -0.4022,0.9254 -0.9102,0.9439 l -2.4612,0.0895 c -0.4123,0.015 -0.7798,-0.2579 -0.8846,-0.6569 L 15.7541,19.3608 C 15.7298,19.2685 15.5994,19.2664 15.5722,19.358 l -0.7699,2.5909 c -0.0397,0.1335 -0.1624,0.2251 -0.3018,0.2251 H 9.46778 c -0.20386,0 -0.38112,-0.1398 -0.42863,-0.338 L 7.78237,16.5917 C 7.75195,16.4647 7.57224,16.4622 7.53831,16.5883 L 6.10973,21.8945 C 6.06532,22.0594 5.91575,22.174 5.74492,22.174 H 3.11054 c -0.20123,0 -0.36714,-0.1577 -0.37732,-0.3587 z"
       fill="url(#paint0_linear_114_46)"
       id="path2"
       style="fill:url(#paint0_linear_114_46)" />
    <path
       fill-rule="evenodd"
       clip-rule="evenodd"
       d="m 1.98047,29.5567 v -5.4561 c 0,-0.1725 0.13886,-0.3129 0.31138,-0.3148 L 21.1433,23.5791 c 0.1753,-0.0019 0.3183,0.1396 0.3183,0.3148 v 5.1463 c 0,0.1582 -0.1174,0.2919 -0.2744,0.3122 l -5.0534,0.6546 c -1.0851,0.1406 -1.8242,1.1708 -1.6096,2.2438 l 0.8251,4.1255 c 0.6641,1.9745 1.2059,6.2051 -1.9391,7.3313 -3.145,1.1263 -4.55108,-1.2661 -4.86098,-2.6031 -0.15938,-0.6906 -0.3825,-2.6669 0,-5.0469 0.22259,-1.385 0.38701,-2.6939 0.41579,-3.7937 0.03153,-1.2046 -0.98249,-2.046 -2.18532,-2.1191 L 2.27619,29.8709 C 2.11004,29.8608 1.98047,29.7231 1.98047,29.5567 Z M 12.0961,41.1311 c 0.5721,0 1.0359,-0.4638 1.0359,-1.036 0,-0.5721 -0.4638,-1.0359 -1.0359,-1.0359 -0.5722,0 -1.036,0.4638 -1.036,1.0359 0,0.5722 0.4638,1.036 1.036,1.036 z"
       fill="url(#paint1_linear_114_46)"
       id="path4"
       style="fill:url(#paint1_linear_114_46)" />
  </g>
  <defs
     id="defs16">
    <linearGradient
       id="paint0_linear_114_46"
       x1="16.063801"
       y1="0.67196602"
       x2="-2.5436599"
       y2="13.3547"
       gradientUnits="userSpaceOnUse">
      <stop
         stop-color="#FEEA95"
         id="stop6" />
      <stop
         offset="1"
         stop-color="#C69753"
         id="stop8" />
    </linearGradient>
    <linearGradient
       id="paint1_linear_114_46"
       x1="15.8868"
       y1="24.198"
       x2="-0.83922499"
       y2="34.9142"
       gradientUnits="userSpaceOnUse">
      <stop
         stop-color="#FEEA95"
         id="stop11" />
      <stop
         offset="1"
         stop-color="#C69753"
         id="stop13" />
    </linearGradient>
  </defs>
</svg>
