<svg xmlns="http://www.w3.org/2000/svg" width="47" height="48" viewBox="0 0 47 48" fill="none">
<g clip-path="url(#clip0_114_3164)">
<path d="M19.5419 11.1362H12.5771C11.9443 11.1362 11.4297 11.6508 11.4297 12.2837V23.6604C11.4297 24.2929 11.9443 24.8079 12.5771 24.8079H19.5419C20.1748 24.8079 20.6893 24.2929 20.6893 23.6604V12.2837C20.6893 11.6508 20.1748 11.1362 19.5419 11.1362ZM15.3709 23.4309H12.8066V20.6153H15.3709V23.4309ZM15.3709 19.2384H12.8066V16.7054H15.3709V19.2384ZM15.3709 15.3284H12.8066V12.5132H15.3709V15.3284ZM19.3124 23.4309H16.7478V20.6153H19.3124V23.4309ZM19.3124 19.2384H16.7478V16.7054H19.3124V19.2384ZM19.3124 15.3284H16.7478V12.5132H19.3124V15.3284Z" fill="#FEEA95"/>
<path d="M28.7759 38.623C28.3954 38.623 28.0874 38.9314 28.0874 39.3115V40.9646C28.0874 41.3447 28.3954 41.6531 28.7759 41.6531C29.1563 41.6531 29.4644 41.3447 29.4644 40.9646V39.3115C29.4644 38.9314 29.1563 38.623 28.7759 38.623Z" fill="#262626"/>
<path d="M46.9935 31.6701C46.9616 31.4284 46.8379 31.2129 46.6453 31.0637L32.0593 19.7781C31.7358 19.5281 31.3493 19.3958 30.9412 19.3958C30.5328 19.3958 30.1462 19.5281 29.8224 19.7784L27.6164 21.4853V19.508C27.6164 19.1276 27.3084 18.8196 26.928 18.8196C26.5475 18.8196 26.2395 19.1276 26.2395 19.508V22.5506L15.2375 31.0633C15.046 31.2111 14.9187 31.4338 14.8886 31.6729C14.8574 31.915 14.9223 32.1552 15.0711 32.3492L16.1874 33.8011C16.3627 34.0281 16.6274 34.1583 16.9139 34.1583C17.1154 34.1583 17.3144 34.0905 17.4743 33.9668L30.9412 23.5471L41.1203 31.423V45.7677H35.5752V44.4768C35.5752 44.0963 35.2671 43.7883 34.8867 43.7883C34.5062 43.7883 34.1982 44.0963 34.1982 44.4768V45.7677H27.6831V35.2204H34.1982V41.241C34.1982 41.6214 34.5062 41.9294 34.8867 41.9294C35.2671 41.9294 35.5752 41.6214 35.5752 41.241V34.9909C35.5752 34.3583 35.0602 33.8434 34.4277 33.8434H27.454C26.8211 33.8434 26.3062 34.3583 26.3062 34.9909V45.7677H21.0745V43.8898C21.0745 43.2569 20.5599 42.7423 19.927 42.7423H19.268C19.3228 42.4684 19.3526 42.1855 19.3526 41.8957C19.3526 39.513 17.4137 37.5745 15.031 37.5745C13.7376 37.5745 12.5273 38.1679 11.718 39.1303C11.4118 39.0335 11.0862 38.9808 10.7484 38.9808C10.5003 38.9808 10.2564 39.0084 10.0194 39.0637C9.26962 37.7792 7.87044 36.953 6.35794 36.953C6.19694 36.953 6.03773 36.9631 5.88067 36.9814V13.9353L16.0601 6.05873L26.2399 13.9353V16.2948C26.2399 16.6753 26.5479 16.9833 26.9283 16.9833C27.3084 16.9833 27.6168 16.6753 27.6168 16.2948V15.0007L29.5273 16.4788C29.6869 16.6025 29.8859 16.6702 30.0874 16.6702C30.3747 16.6702 30.6397 16.5397 30.8143 16.3124C30.8168 16.3091 30.8193 16.3056 30.8218 16.3023L31.8911 14.858L31.8979 14.8494C31.9686 14.7608 32.1561 14.5259 32.1123 14.182C32.0804 13.9393 31.9564 13.7238 31.7642 13.5757L17.1785 2.29004C16.8551 2.04011 16.4685 1.90779 16.0601 1.90779C15.6517 1.90779 15.2651 2.04011 14.9413 2.2904L10.9367 5.3889V4.52113C11.4781 4.42934 11.8919 3.95816 11.8919 3.39124V2.01465C11.8919 1.38175 11.377 0.867188 10.7445 0.867188H5.1653C4.53276 0.867188 4.01784 1.38175 4.01784 2.01465V3.39088C4.01784 3.95816 4.43164 4.42898 4.9731 4.52113V10.0031L0.35744 13.5746C0.16524 13.7223 0.0379434 13.9454 0.00782258 14.1838C-0.0237326 14.4262 0.040812 14.6665 0.189982 14.8608L1.30625 16.3127C1.48123 16.5401 1.74587 16.6702 2.03273 16.6702C2.23426 16.6702 2.43291 16.6025 2.59355 16.4788L4.50372 15.0007V37.3862C3.41076 37.9241 2.56917 38.9209 2.25649 40.1369C1.21839 40.5371 0.505175 41.5454 0.505175 42.69C0.505175 42.8162 0.51414 42.9403 0.530634 43.0622C0.312258 43.2712 0.175997 43.5646 0.175997 43.8898V45.9975C0.175997 46.6301 0.690562 47.145 1.32346 47.145H44.4927C44.8732 47.145 45.1812 46.8366 45.1812 46.4565C45.1812 46.0761 44.8732 45.7681 44.4927 45.7681H42.4972V32.4883L44.4081 33.9668C44.5677 34.0901 44.7667 34.1583 44.9682 34.1583C45.2554 34.1583 45.5204 34.0277 45.6951 33.8C45.6976 33.7968 45.7001 33.7936 45.7026 33.7904L46.7722 32.3456L46.7794 32.3367C46.8497 32.2485 47.0369 32.0136 46.9935 31.6701ZM15.031 38.9514C16.6546 38.9514 17.9756 40.2724 17.9756 41.8957C17.9756 42.1901 17.9312 42.4741 17.8505 42.7423H13.9233C13.9531 42.5674 13.9696 42.3873 13.9696 42.2038C13.9696 41.2696 13.5697 40.4277 12.9333 39.8382C13.4776 39.2856 14.2306 38.9514 15.031 38.9514ZM5.39479 2.24414H10.515V3.16139H5.39479V2.24414ZM9.55972 4.53835V6.45425L6.35005 8.93778V4.53835H9.55972ZM2.11628 15.1072L1.56084 14.3846L15.7836 3.37941C15.865 3.31666 15.9579 3.28474 16.0601 3.28474C16.1623 3.28474 16.2552 3.31666 16.3362 3.37905L30.5396 14.3692L29.9974 15.1018L16.4814 4.64377C16.2333 4.45193 15.8869 4.45193 15.6388 4.64377L2.11628 15.1072ZM19.6975 45.7681H1.55295V44.1193H7.89482C8.27492 44.1193 8.5833 43.8113 8.5833 43.4308C8.5833 43.0504 8.27492 42.7423 7.89482 42.7423H1.88392C1.8832 42.7248 1.88213 42.7076 1.88213 42.69C1.88213 42.0406 2.34362 41.4794 2.9801 41.3561C3.26805 41.3001 3.48893 41.0681 3.53053 40.778C3.73133 39.3828 4.94692 38.3304 6.35794 38.3304C7.52979 38.3304 8.60123 39.0658 9.024 40.1602C9.09284 40.3388 9.23269 40.4804 9.41055 40.5518C9.5884 40.6228 9.78742 40.6163 9.96061 40.5346C10.208 40.4177 10.4734 40.3581 10.7484 40.3581C11.7654 40.3581 12.5926 41.1861 12.5926 42.2041C12.5926 42.3916 12.5632 42.572 12.5108 42.7423H11.1995C10.8191 42.7423 10.511 43.0507 10.511 43.4308C10.511 43.8113 10.8191 44.1193 11.1995 44.1193H19.6975V45.7681ZM44.8786 32.5898L31.3626 22.1321C31.1144 21.9399 30.768 21.9399 30.5199 22.1321L16.9971 32.5952L16.4416 31.8727L30.6648 20.8678C30.7461 20.8047 30.839 20.7728 30.9412 20.7728C31.0431 20.7728 31.1363 20.8047 31.2173 20.8674L45.4207 31.8572L44.8786 32.5898Z" fill="#262626"/>
</g>
<defs>
<clipPath id="clip0_114_3164">
<rect width="47" height="47" fill="white" transform="translate(0 0.5)"/>
</clipPath>
</defs>
</svg>