<svg width="70" height="54" viewBox="0 0 70 54" fill="none" xmlns="http://www.w3.org/2000/svg">
<circle cx="1.23296" cy="1.70171" r="1.1978" fill="#F9E28F"/>
<circle cx="9.61748" cy="1.70171" r="1.1978" fill="#F9E28F"/>
<circle cx="18.0022" cy="1.70171" r="1.1978" fill="#F9E28F"/>
<circle cx="26.3868" cy="1.70171" r="1.1978" fill="#F9E28F"/>
<circle cx="34.7715" cy="1.70171" r="1.1978" fill="#F9E28F"/>
<circle cx="43.1561" cy="1.70171" r="1.1978" fill="#F9E28F"/>
<circle cx="51.5406" cy="1.70171" r="1.1978" fill="#F9E28F"/>
<circle cx="59.9253" cy="1.70171" r="1.1978" fill="#F9E28F"/>
<circle cx="68.3099" cy="1.70171" r="1.1978" fill="#F9E28F"/>
<circle cx="1.23296" cy="10.0862" r="1.1978" fill="#F9E28F"/>
<circle cx="9.61748" cy="10.0862" r="1.1978" fill="#F9E28F"/>
<circle cx="18.0022" cy="10.0862" r="1.1978" fill="#F9E28F"/>
<circle cx="26.3868" cy="10.0862" r="1.1978" fill="#F9E28F"/>
<circle cx="34.7715" cy="10.0862" r="1.1978" fill="#F9E28F"/>
<circle cx="43.1561" cy="10.0862" r="1.1978" fill="#F9E28F"/>
<circle cx="51.5406" cy="10.0862" r="1.1978" fill="#F9E28F"/>
<circle cx="59.9253" cy="10.0862" r="1.1978" fill="#F9E28F"/>
<circle cx="68.3099" cy="10.0862" r="1.1978" fill="#F9E28F"/>
<circle cx="1.23296" cy="18.471" r="1.1978" fill="#F9E28F"/>
<circle cx="9.61748" cy="18.471" r="1.1978" fill="#F9E28F"/>
<circle cx="18.0022" cy="18.471" r="1.1978" fill="#F9E28F"/>
<circle cx="26.3868" cy="18.471" r="1.1978" fill="#F9E28F"/>
<circle cx="34.7715" cy="18.471" r="1.1978" fill="#F9E28F"/>
<circle cx="43.1561" cy="18.471" r="1.1978" fill="#F9E28F"/>
<circle cx="51.5406" cy="18.471" r="1.1978" fill="#F9E28F"/>
<circle cx="59.9253" cy="18.471" r="1.1978" fill="#F9E28F"/>
<circle cx="68.3099" cy="18.471" r="1.1978" fill="#F9E28F"/>
<circle cx="1.23296" cy="26.8555" r="1.1978" fill="#F9E28F"/>
<circle cx="9.61748" cy="26.8555" r="1.1978" fill="#F9E28F"/>
<circle cx="18.0022" cy="26.8555" r="1.1978" fill="#F9E28F"/>
<circle cx="26.3868" cy="26.8555" r="1.1978" fill="#F9E28F"/>
<circle cx="34.7715" cy="26.8555" r="1.1978" fill="#F9E28F"/>
<circle cx="43.1561" cy="26.8555" r="1.1978" fill="#F9E28F"/>
<circle cx="51.5406" cy="26.8555" r="1.1978" fill="#F9E28F"/>
<circle cx="59.9253" cy="26.8555" r="1.1978" fill="#F9E28F"/>
<circle cx="68.3099" cy="26.8555" r="1.1978" fill="#F9E28F"/>
<circle cx="1.23296" cy="35.2403" r="1.1978" fill="#F9E28F"/>
<circle cx="9.61748" cy="35.2403" r="1.1978" fill="#F9E28F"/>
<circle cx="18.0022" cy="35.2403" r="1.1978" fill="#F9E28F"/>
<circle cx="26.3868" cy="35.2403" r="1.1978" fill="#F9E28F"/>
<circle cx="34.7715" cy="35.2403" r="1.1978" fill="#F9E28F"/>
<circle cx="43.1561" cy="35.2403" r="1.1978" fill="#F9E28F"/>
<circle cx="51.5406" cy="35.2403" r="1.1978" fill="#F9E28F"/>
<circle cx="59.9253" cy="35.2403" r="1.1978" fill="#F9E28F"/>
<circle cx="68.3099" cy="35.2403" r="1.1978" fill="#F9E28F"/>
<circle cx="1.23296" cy="43.6248" r="1.1978" fill="#F9E28F"/>
<circle cx="9.61748" cy="43.6248" r="1.1978" fill="#F9E28F"/>
<circle cx="18.0022" cy="43.6248" r="1.1978" fill="#F9E28F"/>
<circle cx="26.3868" cy="43.6248" r="1.1978" fill="#F9E28F"/>
<circle cx="34.7715" cy="43.6248" r="1.1978" fill="#F9E28F"/>
<circle cx="43.1561" cy="43.6248" r="1.1978" fill="#F9E28F"/>
<circle cx="51.5406" cy="43.6248" r="1.1978" fill="#F9E28F"/>
<circle cx="59.9253" cy="43.6248" r="1.1978" fill="#F9E28F"/>
<circle cx="68.3099" cy="43.6248" r="1.1978" fill="#F9E28F"/>
<circle cx="1.23296" cy="52.0093" r="1.1978" fill="#F9E28F"/>
<circle cx="9.61748" cy="52.0093" r="1.1978" fill="#F9E28F"/>
<circle cx="18.0022" cy="52.0093" r="1.1978" fill="#F9E28F"/>
<circle cx="26.3868" cy="52.0093" r="1.1978" fill="#F9E28F"/>
<circle cx="34.7715" cy="52.0093" r="1.1978" fill="#F9E28F"/>
<circle cx="43.1561" cy="52.0093" r="1.1978" fill="#F9E28F"/>
<circle cx="51.5406" cy="52.0093" r="1.1978" fill="#F9E28F"/>
<circle cx="59.9253" cy="52.0093" r="1.1978" fill="#F9E28F"/>
<circle cx="68.3099" cy="52.0093" r="1.1978" fill="#F9E28F"/>
</svg>
