<svg xmlns="http://www.w3.org/2000/svg" width="21" height="22" viewBox="0 0 21 22" fill="none">
<path d="M18.5924 11.1273C18.5598 11.2061 18.5128 11.2772 18.4537 11.3363L12.4538 17.3362C12.3286 17.4614 12.164 17.5248 11.9995 17.5248C11.8349 17.5248 11.6703 17.4622 11.5452 17.3362C11.294 17.0851 11.294 16.6779 11.5452 16.4268L16.4479 11.524H2.57107C2.21622 11.524 1.92822 11.236 1.92822 10.8812C1.92822 10.5263 2.21622 10.2383 2.57107 10.2383H16.4471L11.5443 5.33559C11.2932 5.08445 11.2932 4.67729 11.5443 4.42615C11.7955 4.17501 12.2026 4.17501 12.4538 4.42615L18.4537 10.426C18.5128 10.4852 18.5598 10.5562 18.5924 10.6351C18.6576 10.7928 18.6576 10.9696 18.5924 11.1273Z" fill="#262626"/>
</svg>